<?xml version="1.0" encoding="utf-8"?>
<!-- Generator: Adobe Illustrator 19.0.0, SVG Export Plug-In . SVG Version: 6.00 Build 0)  -->
<svg version="1.1" id="Layer_1" xmlns="http://www.w3.org/2000/svg" xmlns:xlink="http://www.w3.org/1999/xlink" x="0px" y="0px"
	 viewBox="0 0 468 144" style="enable-background:new 0 0 468 144;" xml:space="preserve">
<style type="text/css">
	.st0{fill:#020202;}
</style>
<g id="T">
	<rect x="9" y="9" width="72" height="18"/>
	<rect x="36" y="18" width="18" height="90"/>
</g>
<g id="u">
	<path d="M126,36v44.8c0,5-4,9-9,9h-9c-5,0-9-4-9-9V36H81v44.8V81v8.8c0,10,8,18,18,18h45V81v-0.2V36H126z"/>
</g>
<g id="u2">
	<path d="M207,36v44.8c0,5-4,9-9,9h-9c-5,0-9-4-9-9V36h-18v44.8V81v8.8c0,10,8,18,18,18h45V81v-0.2V36H207z"/>
</g>
<g id="t">
	<path class="st0" d="M297,63V45h-27v-9h-18v9h-9v18h9v18c0,14.9,12.1,27,27,27h18V90h-18c-5,0-9-4-9-9V63H297z"/>
</g>
<g id="o">
	<path d="M342,36c-19.9,0-36,16.1-36,36s16.1,36,36,36s36-16.1,36-36S361.9,36,342,36z M342,90c-10,0-18-8-18-18s8-18,18-18
		s18,8,18,18S352,90,342,90z"/>
</g>
<g id="r">
	<path d="M414,36c-5,0-9,4-9,9v-9h-18v72h18V63c0-5,4-9,9-9h18V36H414z"/>
</g>
<g id="top_arrow">
	<polygon points="468,18 441,0 441,9 279,9 99,9 99,27 279,27 441,27 441,36 	"/>
</g>
<g id="bottom_arrow">
	<polygon points="27,117 27,108 0,126 27,144 27,135 423,135 423,117 	"/>
</g>
</svg>
